<svg width="12" height="18" viewBox="0 0 12 18" fill="none" xmlns="http://www.w3.org/2000/svg">
<path d="M6 1C2.955 5.5 1 8.31 1 11.045C1 12.3711 1.52678 13.6429 2.46447 14.5805C3.40215 15.5182 4.67392 16.045 6 16.045C7.32608 16.045 8.59785 15.5182 9.53553 14.5805C10.4732 13.6429 11 12.3711 11 11.045C11 8.31 9.045 5.5 6 1Z" stroke="#2885C7" stroke-width="2" stroke-linecap="round" stroke-linejoin="round"/>
<path d="M3.11991 7.59498C3.4158 7.34808 3.79538 7.22454 4.17991 7.24998C4.56444 7.22454 4.94401 7.34808 5.23991 7.59498C5.36591 7.71977 5.46403 7.86985 5.5278 8.03532C5.59158 8.20079 5.61956 8.3779 5.60991 8.55498V9.17498C5.61909 9.3505 5.59085 9.52598 5.52706 9.68976C5.46327 9.85355 5.36539 10.0019 5.23991 10.125C4.94204 10.3678 4.56346 10.4893 4.17991 10.465C3.79604 10.4918 3.41655 10.3701 3.11991 10.125C2.99443 10.0019 2.89655 9.85355 2.83276 9.68976C2.76897 9.52598 2.74073 9.3505 2.74991 9.17498V8.55498C2.74025 8.3779 2.76824 8.20079 2.83201 8.03532C2.89579 7.86985 2.99391 7.71977 3.11991 7.59498ZM8.61991 7.47998C8.63078 7.51397 8.63282 7.55017 8.62582 7.58516C8.61882 7.62015 8.60302 7.65279 8.57991 7.67998L4.49991 13.345C4.44442 13.4342 4.36914 13.5095 4.27991 13.565C4.164 13.6033 4.0417 13.6186 3.91991 13.61H3.58491C3.48491 13.61 3.41991 13.58 3.39491 13.52C3.36991 13.46 3.39491 13.395 3.43991 13.31L7.53991 7.63498C7.5865 7.5479 7.65783 7.47657 7.74491 7.42998C7.8535 7.39777 7.96678 7.38424 8.07991 7.38998H8.45991C8.54991 7.38998 8.60657 7.42664 8.62991 7.49998L8.61991 7.47998ZM4.16991 8.06498C3.77491 8.06498 3.57491 8.24498 3.57491 8.59998V9.09998C3.57491 9.45498 3.77491 9.63498 4.16991 9.63498C4.56491 9.63498 4.76491 9.45498 4.76491 9.09998V8.59998C4.77491 8.24498 4.57491 8.06498 4.17991 8.06498H4.16991ZM6.74991 10.88C7.0458 10.6331 7.42537 10.5095 7.80991 10.535C8.19444 10.5095 8.57401 10.6331 8.86991 10.88C8.99591 11.0048 9.09403 11.1548 9.1578 11.3203C9.22158 11.4858 9.24956 11.6629 9.23991 11.84V12.46C9.24909 12.6355 9.22085 12.811 9.15706 12.9748C9.09327 13.1385 8.99539 13.2869 8.86991 13.41C8.57327 13.6551 8.19377 13.7768 7.80991 13.75C7.42635 13.7743 7.04778 13.6528 6.74991 13.41C6.62443 13.2869 6.52655 13.1385 6.46276 12.9748C6.39897 12.811 6.37073 12.6355 6.37991 12.46V11.84C6.37154 11.6622 6.4011 11.4846 6.46661 11.3191C6.53213 11.1536 6.63211 11.0039 6.75991 10.88H6.74991ZM7.80991 11.35C7.41491 11.35 7.21491 11.525 7.21491 11.885V12.385C7.21491 12.75 7.41491 12.93 7.80991 12.93C8.20491 12.93 8.40491 12.75 8.40491 12.385V11.885C8.41491 11.525 8.21491 11.35 7.81991 11.35H7.80991Z" fill="#2885C7"/>
</svg>
